<?xml version="1.0" encoding="iso-8859-1"?>
<!-- Generator: Adobe Illustrator 19.0.0, SVG Export Plug-In . SVG Version: 6.00 Build 0)  -->
<svg xmlns="http://www.w3.org/2000/svg" xmlns:xlink="http://www.w3.org/1999/xlink" version="1.1" id="Capa_1" x="0px" y="0px" viewBox="0 0 511.999 511.999" style="enable-background:new 0 0 511.999 511.999;" xml:space="preserve" width="512px" height="512px">
<g>
	<g>
		<path d="M248.751,402.311c-4.199-3.587-10.511-3.089-14.099,1.109l-0.743,0.87c-3.586,4.2-3.09,10.513,1.111,14.099    c1.884,1.609,4.192,2.396,6.489,2.396c2.824,0,5.631-1.19,7.609-3.505l0.743-0.87C253.448,412.21,252.951,405.898,248.751,402.311    z" fill="#88100d"/>
	</g>
</g>
<g>
	<g>
		<path d="M230.815,423.01c-4.267-3.503-10.571-2.884-14.074,1.386c-12.089,14.732-28.547,18.508-40.226,19.082    c-21.718,1.069-45.616-8.092-60.858-23.335c-3.906-3.905-10.236-3.905-14.143,0c-3.905,3.905-3.905,10.237,0,14.143    c18.292,18.291,45.315,29.279,71.471,29.279c1.507,0,3.014-0.037,4.513-0.11c22.218-1.092,41.645-10.457,54.704-26.371    C235.706,432.814,235.086,426.513,230.815,423.01z" fill="#88100d"/>
	</g>
</g>
<g>
	<g>
		<path d="M472.901,77.041c9.864-9.864,15.298-23.024,15.298-37.055c0-14.032-5.433-27.192-15.298-37.057    c-3.906-3.905-10.236-3.905-14.143,0c-3.905,3.905-3.905,10.237,0,14.143c6.088,6.087,9.44,14.225,9.44,22.914    c-0.001,8.689-3.353,16.826-9.44,22.913l-23.177,23.178c-19.808-17.065-42.109-25.712-66.426-25.712    c-33.464,0-70.52,16.484-110.136,48.995l-73.126,60.008c-0.002,0.001-0.003,0.003-0.005,0.005l-28.109,23.066    c-4.269,3.503-4.89,9.805-1.387,14.074c1.977,2.409,4.845,3.656,7.736,3.656c2.231,0,4.477-0.743,6.338-2.27l35.586-29.202    c0.002-0.001,0.004-0.004,0.006-0.005l63.313-51.955l70.059-7.042l-7.344,73.068c-0.3,2.986,0.757,5.949,2.879,8.071    c2.123,2.122,5.09,3.182,8.071,2.878l73.067-7.344l-7.041,70.061L254.204,455.138c-18.191,22.169-45.112,35.208-75.804,36.716    c-35.566,1.744-71.818-12.25-97.011-37.443S42.198,392.952,43.946,357.4c1.508-30.69,14.548-57.611,36.717-75.803    c0.002-0.001,0.004-0.003,0.006-0.005l32.026-26.283c4.27-3.503,4.89-9.805,1.387-14.074c-3.504-4.269-9.803-4.89-14.074-1.386    L67.98,266.131c-0.002,0.001-0.004,0.003-0.006,0.004c-26.588,21.819-42.217,53.882-44.005,90.283    c-2.021,41.096,14.158,83.016,43.277,112.135c27.49,27.49,66.387,43.446,105.232,43.446c2.301,0,4.605-0.056,6.902-0.169    c36.401-1.789,68.465-17.417,90.283-44.004l156.774-191.043c0.003-0.004,0.005-0.008,0.009-0.011    c69.493-84.686,53.056-141.878,23.272-176.548L472.901,77.041z M454.124,181.719c-2.801,16.485-10.092,34.182-21.761,52.873    l4.864-48.395c0.3-2.986-0.757-5.949-2.879-8.071c-1.885-1.884-4.433-2.929-7.07-2.929c-0.333,0-0.667,0.017-1.001,0.05    l-73.067,7.344l7.344-73.068c0.3-2.986-0.757-5.949-2.879-8.071c-2.123-2.122-5.093-3.178-8.071-2.879l-48.413,4.866    c24.535-15.331,47.305-23.074,67.965-23.074c19.174,0,36.347,6.535,52.241,19.896l-9.758,9.758    c-3.905,3.905-3.905,10.237,0,14.142c1.953,1.953,4.512,2.929,7.071,2.929c2.56,0,5.118-0.976,7.071-2.929l9.76-9.759    C452.32,134.374,458.411,156.485,454.124,181.719z" fill="#88100d"/>
	</g>
</g>
<g>
	<g>
		<path d="M136.938,222.49c-3.498-4.272-9.8-4.899-14.072-1.399l-0.367,0.301c-4.272,3.499-4.898,9.8-1.398,14.073    c1.976,2.414,4.846,3.663,7.741,3.663c2.229,0,4.473-0.742,6.331-2.264l0.367-0.301    C139.812,233.064,140.438,226.763,136.938,222.49z" fill="#88100d"/>
	</g>
</g>
<g>
</g>
<g>
</g>
<g>
</g>
<g>
</g>
<g>
</g>
<g>
</g>
<g>
</g>
<g>
</g>
<g>
</g>
<g>
</g>
<g>
</g>
<g>
</g>
<g>
</g>
<g>
</g>
<g>
</g>
</svg>
