<?xml version="1.0"?>
<svg xmlns="http://www.w3.org/2000/svg" height="512px" viewBox="0 -75 512 512" width="512px"><path d="m417.574219 114.542969c-39.601563-39.601563-91.183594-62.863281-146.574219-66.429688v-18.113281h25.5v-30h-81v30h25.5v18.113281c-55.390625 3.566407-106.972656 26.828125-146.574219 66.429688-40.851562 40.851562-64.316406 94.449219-66.707031 151.824219h456.5625c-2.390625-57.375-25.855469-110.972657-66.707031-151.824219zm-311.675781 117.503906-29.691407-4.289063c.285157-1.992187 7.414063-49.054687 40.109375-77.789062l19.804688 22.53125c-24.089844 21.175781-30.167969 59.167969-30.222656 59.546875zm0 0" fill="#FFFFFF"/><path d="m0 296.367188v4.132812c0 33.359375 27.140625 60.5 60.5 60.5h391c33.359375 0 60.5-27.140625 60.5-60.5v-4.132812zm0 0" fill="#FFFFFF"/></svg>
